<svg xmlns="http://www.w3.org/2000/svg" xmlns:xlink="http://www.w3.org/1999/xlink" width="500" zoomAndPan="magnify" viewBox="0 0 375 374.999991" height="500" preserveAspectRatio="xMidYMid meet" version="1.0"><path fill="#d43377" d="M 56.25 0 L 318.75 0 C 320.59375 0 322.429688 0.0898438 324.261719 0.269531 C 326.097656 0.453125 327.917969 0.722656 329.722656 1.082031 C 331.53125 1.441406 333.316406 1.886719 335.078125 2.421875 C 336.839844 2.957031 338.574219 3.578125 340.277344 4.28125 C 341.976562 4.988281 343.640625 5.773438 345.265625 6.640625 C 346.890625 7.511719 348.46875 8.457031 350 9.480469 C 351.53125 10.503906 353.011719 11.597656 354.433594 12.769531 C 355.859375 13.9375 357.222656 15.171875 358.523438 16.476562 C 359.828125 17.777344 361.0625 19.140625 362.230469 20.566406 C 363.402344 21.988281 364.496094 23.46875 365.519531 25 C 366.542969 26.53125 367.488281 28.109375 368.359375 29.734375 C 369.226562 31.359375 370.011719 33.023438 370.71875 34.722656 C 371.421875 36.425781 372.042969 38.160156 372.578125 39.921875 C 373.113281 41.683594 373.558594 43.46875 373.917969 45.277344 C 374.277344 47.082031 374.546875 48.902344 374.730469 50.738281 C 374.910156 52.570312 375 54.40625 375 56.25 L 375 318.75 C 375 320.59375 374.910156 322.429688 374.730469 324.261719 C 374.546875 326.097656 374.277344 327.917969 373.917969 329.722656 C 373.558594 331.53125 373.113281 333.316406 372.578125 335.078125 C 372.042969 336.839844 371.421875 338.574219 370.71875 340.277344 C 370.011719 341.976562 369.226562 343.640625 368.359375 345.265625 C 367.488281 346.890625 366.542969 348.46875 365.519531 350 C 364.496094 351.53125 363.402344 353.011719 362.230469 354.433594 C 361.0625 355.859375 359.828125 357.222656 358.523438 358.523438 C 357.222656 359.828125 355.859375 361.0625 354.433594 362.230469 C 353.011719 363.402344 351.53125 364.496094 350 365.519531 C 348.46875 366.542969 346.890625 367.488281 345.265625 368.359375 C 343.640625 369.226562 341.976562 370.011719 340.277344 370.71875 C 338.574219 371.421875 336.839844 372.042969 335.078125 372.578125 C 333.316406 373.113281 331.53125 373.558594 329.722656 373.917969 C 327.917969 374.277344 326.097656 374.546875 324.261719 374.730469 C 322.429688 374.910156 320.59375 375 318.75 375 L 56.25 375 C 54.40625 375 52.570312 374.910156 50.738281 374.730469 C 48.902344 374.546875 47.082031 374.277344 45.277344 373.917969 C 43.46875 373.558594 41.683594 373.113281 39.921875 372.578125 C 38.160156 372.042969 36.425781 371.421875 34.722656 370.71875 C 33.023438 370.011719 31.359375 369.226562 29.734375 368.359375 C 28.109375 367.488281 26.53125 366.542969 25 365.519531 C 23.46875 364.496094 21.988281 363.402344 20.566406 362.230469 C 19.140625 361.0625 17.777344 359.828125 16.476562 358.523438 C 15.171875 357.222656 13.9375 355.859375 12.769531 354.433594 C 11.597656 353.011719 10.503906 351.53125 9.480469 350 C 8.457031 348.46875 7.511719 346.890625 6.640625 345.265625 C 5.773438 343.640625 4.988281 341.976562 4.28125 340.277344 C 3.578125 338.574219 2.957031 336.839844 2.421875 335.078125 C 1.886719 333.316406 1.441406 331.53125 1.082031 329.722656 C 0.722656 327.917969 0.453125 326.097656 0.269531 324.261719 C 0.0898438 322.429688 0 320.59375 0 318.75 L 0 56.25 C 0 54.40625 0.0898438 52.570312 0.269531 50.738281 C 0.453125 48.902344 0.722656 47.082031 1.082031 45.277344 C 1.441406 43.46875 1.886719 41.683594 2.421875 39.921875 C 2.957031 38.160156 3.578125 36.425781 4.28125 34.722656 C 4.988281 33.023438 5.773438 31.359375 6.640625 29.734375 C 7.511719 28.109375 8.457031 26.53125 9.480469 25 C 10.503906 23.46875 11.597656 21.988281 12.769531 20.566406 C 13.9375 19.140625 15.171875 17.777344 16.476562 16.476562 C 17.777344 15.171875 19.140625 13.9375 20.566406 12.769531 C 21.988281 11.597656 23.46875 10.503906 25 9.480469 C 26.53125 8.457031 28.109375 7.511719 29.734375 6.640625 C 31.359375 5.773438 33.023438 4.988281 34.722656 4.28125 C 36.425781 3.578125 38.160156 2.957031 39.921875 2.421875 C 41.683594 1.886719 43.46875 1.441406 45.277344 1.082031 C 47.082031 0.722656 48.902344 0.453125 50.738281 0.269531 C 52.570312 0.0898438 54.40625 0 56.25 0 Z M 56.25 0 " fill-opacity="1" fill-rule="nonzero"/><path stroke-linecap="butt" transform="matrix(0.732422, 0, 0, 0.732422, 0.0000045, 0)" fill="none" stroke-linejoin="miter" d="M 186.000007 108.000008 L 326.000017 108.000008 C 328.554683 108.000008 331.104017 108.122674 333.648017 108.373341 C 336.186684 108.624008 338.709351 109.002674 341.216018 109.498674 C 343.722685 109.994674 346.197351 110.618674 348.640018 111.360008 C 351.088018 112.101341 353.488019 112.960008 355.850685 113.936008 C 358.208019 114.917341 360.517352 116.005341 362.768019 117.210675 C 365.024019 118.416008 367.210686 119.728008 369.333353 121.146675 C 371.45602 122.565342 373.509353 124.085342 375.482687 125.706675 C 377.45602 127.328009 379.349354 129.040009 381.15202 130.848009 C 382.960021 132.650676 384.672021 134.544009 386.293354 136.517343 C 387.914688 138.490676 389.434688 140.54401 390.853354 142.666677 C 392.272021 144.789343 393.584021 146.97601 394.789355 149.23201 C 395.994688 151.482677 397.082688 153.792011 398.064022 156.149344 C 399.040022 158.512011 399.898688 160.912011 400.640022 163.360011 C 401.381355 165.802678 402.005355 168.277345 402.501355 170.784012 C 402.997355 173.290679 403.376022 175.813346 403.626689 178.352012 C 403.877355 180.896013 404.000022 183.445346 404.000022 186.000013 L 404.000022 326.000023 C 404.000022 328.55469 403.877355 331.104023 403.626689 333.648023 C 403.376022 336.18669 402.997355 338.709357 402.501355 341.216024 C 402.005355 343.722691 401.381355 346.197357 400.640022 348.640024 C 399.898688 351.088024 399.040022 353.488025 398.064022 355.850691 C 397.082688 358.208025 395.994688 360.517358 394.789355 362.768025 C 393.584021 365.024025 392.272021 367.210692 390.853354 369.333359 C 389.434688 371.456026 387.914688 373.509359 386.293354 375.482693 C 384.672021 377.456026 382.960021 379.34936 381.15202 381.152027 C 379.349354 382.960027 377.45602 384.672027 375.482687 386.29336 C 373.509353 387.914694 371.45602 389.434694 369.333353 390.853361 C 367.210686 392.272027 365.024019 393.584027 362.768019 394.789361 C 360.517352 395.994694 358.208019 397.082694 355.850685 398.064028 C 353.488019 399.040028 351.088018 399.898695 348.640018 400.640028 C 346.197351 401.381361 343.722685 402.005361 341.216018 402.501361 C 338.709351 402.997361 336.186684 403.376028 333.648017 403.626695 C 331.104017 403.877362 328.554683 404.000028 326.000017 404.000028 L 186.000007 404.000028 C 183.44534 404.000028 180.896006 403.877362 178.352006 403.626695 C 175.813339 403.376028 173.290673 402.997361 170.784006 402.501361 C 168.277339 402.005361 165.802672 401.381361 163.360005 400.640028 C 160.912005 399.898695 158.512005 399.040028 156.149338 398.064028 C 153.792005 397.082694 151.482671 395.994694 149.232004 394.789361 C 146.976004 393.584027 144.789337 392.272027 142.66667 390.853361 C 140.544004 389.434694 138.49067 387.914694 136.517337 386.29336 C 134.544003 384.672027 132.65067 382.960027 130.848003 381.152027 C 129.040003 379.34936 127.328003 377.456026 125.706669 375.482693 C 124.085336 373.509359 122.565336 371.456026 121.146669 369.333359 C 119.728002 367.210692 118.416002 365.024025 117.210669 362.768025 C 116.005335 360.517358 114.917335 358.208025 113.936002 355.850691 C 112.960002 353.488025 112.101335 351.088024 111.360002 348.640024 C 110.618668 346.197357 109.994668 343.722691 109.498668 341.216024 C 109.002668 338.709357 108.624001 336.18669 108.373335 333.648023 C 108.122668 331.104023 108.000001 328.55469 108.000001 326.000023 L 108.000001 186.000013 C 108.000001 183.445346 108.122668 180.896013 108.373335 178.352012 C 108.624001 175.813346 109.002668 173.290679 109.498668 170.784012 C 109.994668 168.277345 110.618668 165.802678 111.360002 163.360011 C 112.101335 160.912011 112.960002 158.512011 113.936002 156.149344 C 114.917335 153.792011 116.005335 151.482677 117.210669 149.23201 C 118.416002 146.97601 119.728002 144.789343 121.146669 142.666677 C 122.565336 140.54401 124.085336 138.490676 125.706669 136.517343 C 127.328003 134.544009 129.040003 132.650676 130.848003 130.848009 C 132.65067 129.040009 134.544003 127.328009 136.517337 125.706675 C 138.49067 124.085342 140.544004 122.565342 142.66667 121.146675 C 144.789337 119.728008 146.976004 118.416008 149.232004 117.210675 C 151.482671 116.005341 153.792005 114.917341 156.149338 113.936008 C 158.512005 112.960008 160.912005 112.101341 163.360005 111.360008 C 165.802672 110.618674 168.277339 109.994674 170.784006 109.498674 C 173.290673 109.002674 175.813339 108.624008 178.352006 108.373341 C 180.896006 108.122674 183.44534 108.000008 186.000007 108.000008 Z M 186.000007 108.000008 " stroke="#ffffff" stroke-width="29" stroke-opacity="1" stroke-miterlimit="4"/><path stroke-linecap="butt" transform="matrix(0.732422, 0, 0, 0.732422, 0.0000045, 0)" fill="none" stroke-linejoin="miter" d="M 324.99735 256.000018 C 324.99735 258.261351 324.890683 260.512018 324.666683 262.762685 C 324.448016 265.013352 324.11735 267.242685 323.674683 269.461352 C 323.232016 271.680019 322.682683 273.866686 322.026683 276.032019 C 321.370683 278.192019 320.61335 280.314686 319.749349 282.405353 C 318.885349 284.490687 317.920016 286.533353 316.853349 288.52802 C 315.786683 290.517354 314.629349 292.453354 313.370682 294.336021 C 312.117349 296.213354 310.773349 298.026687 309.338682 299.770688 C 307.904015 301.520021 306.389349 303.194688 304.789348 304.789355 C 303.194682 306.389355 301.520015 307.904021 299.770681 309.338688 C 298.026681 310.773355 296.213348 312.117355 294.336014 313.370689 C 292.453348 314.629355 290.517347 315.786689 288.528014 316.853355 C 286.533347 317.920022 284.49068 318.885356 282.405347 319.749356 C 280.31468 320.613356 278.192013 321.370689 276.032013 322.026689 C 273.86668 322.682689 271.680013 323.232023 269.461346 323.674689 C 267.242679 324.117356 265.013346 324.448023 262.762679 324.666689 C 260.512012 324.890689 258.261345 324.997356 256.000012 324.997356 C 253.738678 324.997356 251.488011 324.890689 249.237345 324.666689 C 246.986678 324.448023 244.757344 324.117356 242.538677 323.674689 C 240.320011 323.232023 238.133344 322.682689 235.96801 322.026689 C 233.80801 321.370689 231.68001 320.613356 229.594677 319.749356 C 227.509343 318.885356 225.466676 317.920022 223.472009 316.853355 C 221.482676 315.786689 219.546676 314.629355 217.664009 313.370689 C 215.786676 312.117355 213.973342 310.773355 212.229342 309.338688 C 210.480009 307.904021 208.805342 306.389355 207.210675 304.789355 C 205.610675 303.194688 204.096008 301.520021 202.661341 299.770688 C 201.226675 298.026687 199.882674 296.213354 198.629341 294.336021 C 197.370674 292.453354 196.213341 290.517354 195.146674 288.52802 C 194.080007 286.533353 193.114674 284.490687 192.250674 282.405353 C 191.386674 280.314686 190.62934 278.192019 189.97334 276.032019 C 189.31734 273.866686 188.768007 271.680019 188.32534 269.461352 C 187.882674 267.242685 187.552007 265.013352 187.33334 262.762685 C 187.10934 260.512018 187.002674 258.261351 186.99734 256.000018 C 187.002674 253.738684 187.10934 251.488018 187.33334 249.237351 C 187.552007 246.986684 187.882674 244.75735 188.32534 242.538684 C 188.768007 240.320017 189.31734 238.13335 189.97334 235.968016 C 190.62934 233.808016 191.386674 231.680016 192.250674 229.594683 C 193.114674 227.509349 194.080007 225.466682 195.146674 223.472016 C 196.213341 221.482682 197.370674 219.546682 198.629341 217.664015 C 199.882674 215.786682 201.226675 213.973348 202.661341 212.229348 C 204.096008 210.480015 205.610675 208.805348 207.210675 207.210681 C 208.805342 205.610681 210.480009 204.096014 212.229342 202.661347 C 213.973342 201.226681 215.786676 199.882681 217.664009 198.629347 C 219.546676 197.37068 221.482676 196.213347 223.472009 195.14668 C 225.466676 194.080014 227.509343 193.11468 229.594677 192.25068 C 231.68001 191.38668 233.80801 190.629347 235.96801 189.973347 C 238.133344 189.317347 240.320011 188.768013 242.538677 188.325346 C 244.757344 187.88268 246.986678 187.552013 249.237345 187.333346 C 251.488011 187.109346 253.738678 187.00268 256.000012 186.997346 C 258.261345 187.00268 260.512012 187.109346 262.762679 187.333346 C 265.013346 187.552013 267.242679 187.88268 269.461346 188.325346 C 271.680013 188.768013 273.86668 189.317347 276.032013 189.973347 C 278.192013 190.629347 280.31468 191.38668 282.405347 192.25068 C 284.49068 193.11468 286.533347 194.080014 288.528014 195.14668 C 290.517347 196.213347 292.453348 197.37068 294.336014 198.629347 C 296.213348 199.882681 298.026681 201.226681 299.770681 202.661347 C 301.520015 204.096014 303.194682 205.610681 304.789348 207.210681 C 306.389349 208.805348 307.904015 210.480015 309.338682 212.229348 C 310.773349 213.973348 312.117349 215.786682 313.370682 217.664015 C 314.629349 219.546682 315.786683 221.482682 316.853349 223.472016 C 317.920016 225.466682 318.885349 227.509349 319.749349 229.594683 C 320.61335 231.680016 321.370683 233.808016 322.026683 235.968016 C 322.682683 238.13335 323.232016 240.320017 323.674683 242.538684 C 324.11735 244.75735 324.448016 246.986684 324.666683 249.237351 C 324.890683 251.488018 324.99735 253.738684 324.99735 256.000018 Z M 324.99735 256.000018 " stroke="#ffffff" stroke-width="29" stroke-opacity="1" stroke-miterlimit="4"/><path fill="#ffffff" d="M 265.136719 123.777344 C 265.136719 124.691406 265.046875 125.597656 264.871094 126.496094 C 264.691406 127.390625 264.425781 128.261719 264.078125 129.105469 C 263.726562 129.949219 263.300781 130.75 262.792969 131.511719 C 262.285156 132.269531 261.707031 132.972656 261.0625 133.621094 C 260.414062 134.265625 259.710938 134.84375 258.953125 135.351562 C 258.191406 135.859375 257.390625 136.285156 256.546875 136.636719 C 255.703125 136.984375 254.832031 137.25 253.933594 137.429688 C 253.039062 137.605469 252.132812 137.695312 251.21875 137.695312 C 250.308594 137.695312 249.402344 137.605469 248.503906 137.429688 C 247.609375 137.25 246.738281 136.984375 245.894531 136.636719 C 245.050781 136.285156 244.25 135.859375 243.488281 135.351562 C 242.730469 134.84375 242.027344 134.265625 241.378906 133.621094 C 240.734375 132.972656 240.15625 132.269531 239.648438 131.511719 C 239.140625 130.75 238.714844 129.949219 238.363281 129.105469 C 238.015625 128.261719 237.75 127.390625 237.570312 126.496094 C 237.394531 125.597656 237.304688 124.691406 237.304688 123.777344 C 237.304688 122.867188 237.394531 121.960938 237.570312 121.0625 C 237.75 120.167969 238.015625 119.296875 238.363281 118.453125 C 238.714844 117.609375 239.140625 116.808594 239.648438 116.046875 C 240.15625 115.289062 240.734375 114.585938 241.378906 113.9375 C 242.027344 113.292969 242.730469 112.714844 243.488281 112.207031 C 244.25 111.699219 245.050781 111.273438 245.894531 110.921875 C 246.738281 110.574219 247.609375 110.308594 248.503906 110.128906 C 249.402344 109.953125 250.308594 109.863281 251.21875 109.863281 C 252.132812 109.863281 253.039062 109.953125 253.933594 110.128906 C 254.832031 110.308594 255.703125 110.574219 256.546875 110.921875 C 257.390625 111.273438 258.191406 111.699219 258.953125 112.207031 C 259.710938 112.714844 260.414062 113.292969 261.0625 113.9375 C 261.707031 114.585938 262.285156 115.289062 262.792969 116.046875 C 263.300781 116.808594 263.726562 117.609375 264.078125 118.453125 C 264.425781 119.296875 264.691406 120.167969 264.871094 121.0625 C 265.046875 121.960938 265.136719 122.867188 265.136719 123.777344 Z M 265.136719 123.777344 " fill-opacity="1" fill-rule="nonzero"/></svg>