<svg xmlns="http://www.w3.org/2000/svg" xmlns:xlink="http://www.w3.org/1999/xlink" width="500" zoomAndPan="magnify" viewBox="0 0 375 374.999991" height="500" preserveAspectRatio="xMidYMid meet" version="1.0"><defs><clipPath id="cc314de2aa"><path d="M 0 0.578125 L 375 0.578125 L 375 375 L 0 375 Z M 0 0.578125 " clip-rule="nonzero"/></clipPath><clipPath id="933804c9e8"><path d="M 37.5 37.5 L 339 37.5 L 339 339 L 37.5 339 Z M 37.5 37.5 " clip-rule="nonzero"/></clipPath></defs><g clip-path="url(#cc314de2aa)"><path fill="#ffffff" d="M 56.25 0.578125 L 318.75 0.578125 C 320.59375 0.578125 322.429688 0.667969 324.261719 0.847656 C 326.097656 1.03125 327.917969 1.300781 329.722656 1.660156 C 331.53125 2.019531 333.316406 2.464844 335.078125 3 C 336.839844 3.535156 338.574219 4.15625 340.277344 4.859375 C 341.976562 5.566406 343.640625 6.351562 345.265625 7.21875 C 346.890625 8.089844 348.46875 9.035156 350 10.058594 C 351.53125 11.082031 353.011719 12.175781 354.433594 13.347656 C 355.859375 14.515625 357.222656 15.75 358.523438 17.054688 C 359.828125 18.355469 361.0625 19.71875 362.230469 21.144531 C 363.402344 22.566406 364.496094 24.046875 365.519531 25.578125 C 366.542969 27.109375 367.488281 28.6875 368.359375 30.3125 C 369.226562 31.9375 370.011719 33.601562 370.71875 35.300781 C 371.421875 37.003906 372.042969 38.738281 372.578125 40.5 C 373.113281 42.261719 373.558594 44.046875 373.917969 45.855469 C 374.277344 47.660156 374.546875 49.480469 374.730469 51.3125 C 374.910156 53.148438 375 54.984375 375 56.828125 L 375 319.328125 C 375 321.171875 374.910156 323.007812 374.730469 324.839844 C 374.546875 326.675781 374.277344 328.496094 373.917969 330.300781 C 373.558594 332.109375 373.113281 333.894531 372.578125 335.65625 C 372.042969 337.417969 371.421875 339.152344 370.71875 340.855469 C 370.011719 342.554688 369.226562 344.21875 368.359375 345.84375 C 367.488281 347.46875 366.542969 349.046875 365.519531 350.578125 C 364.496094 352.109375 363.402344 353.589844 362.230469 355.011719 C 361.0625 356.4375 359.828125 357.800781 358.523438 359.101562 C 357.222656 360.40625 355.859375 361.640625 354.433594 362.808594 C 353.011719 363.976562 351.53125 365.074219 350 366.097656 C 348.46875 367.121094 346.890625 368.066406 345.265625 368.9375 C 343.640625 369.804688 341.976562 370.589844 340.277344 371.296875 C 338.574219 372 336.839844 372.621094 335.078125 373.15625 C 333.316406 373.691406 331.53125 374.136719 329.722656 374.496094 C 327.917969 374.855469 326.097656 375.125 324.261719 375.308594 C 322.429688 375.488281 320.59375 375.578125 318.75 375.578125 L 56.25 375.578125 C 54.40625 375.578125 52.570312 375.488281 50.738281 375.308594 C 48.902344 375.125 47.082031 374.855469 45.277344 374.496094 C 43.46875 374.136719 41.683594 373.691406 39.921875 373.15625 C 38.160156 372.621094 36.425781 372 34.722656 371.296875 C 33.023438 370.589844 31.359375 369.804688 29.734375 368.9375 C 28.109375 368.066406 26.53125 367.121094 25 366.097656 C 23.46875 365.074219 21.988281 363.976562 20.566406 362.808594 C 19.140625 361.640625 17.777344 360.40625 16.476562 359.101562 C 15.171875 357.800781 13.9375 356.4375 12.769531 355.011719 C 11.597656 353.589844 10.503906 352.109375 9.480469 350.578125 C 8.457031 349.046875 7.511719 347.46875 6.640625 345.84375 C 5.773438 344.21875 4.988281 342.554688 4.28125 340.855469 C 3.578125 339.152344 2.957031 337.417969 2.421875 335.65625 C 1.886719 333.894531 1.441406 332.109375 1.082031 330.300781 C 0.722656 328.496094 0.453125 326.675781 0.269531 324.839844 C 0.0898438 323.007812 0 321.171875 0 319.328125 L 0 56.828125 C 0 54.984375 0.0898438 53.148438 0.269531 51.3125 C 0.453125 49.480469 0.722656 47.660156 1.082031 45.855469 C 1.441406 44.046875 1.886719 42.261719 2.421875 40.5 C 2.957031 38.738281 3.578125 37.003906 4.28125 35.300781 C 4.988281 33.601562 5.773438 31.9375 6.640625 30.3125 C 7.511719 28.6875 8.457031 27.109375 9.480469 25.578125 C 10.503906 24.046875 11.597656 22.566406 12.769531 21.144531 C 13.9375 19.71875 15.171875 18.355469 16.476562 17.054688 C 17.777344 15.75 19.140625 14.515625 20.566406 13.347656 C 21.988281 12.175781 23.46875 11.082031 25 10.058594 C 26.53125 9.035156 28.109375 8.089844 29.734375 7.21875 C 31.359375 6.351562 33.023438 5.566406 34.722656 4.859375 C 36.425781 4.15625 38.160156 3.535156 39.921875 3 C 41.683594 2.464844 43.46875 2.019531 45.277344 1.660156 C 47.082031 1.300781 48.902344 1.03125 50.738281 0.847656 C 52.570312 0.667969 54.40625 0.578125 56.25 0.578125 Z M 56.25 0.578125 " fill-opacity="1" fill-rule="nonzero"/></g><path fill="#ffffff" d="M 210.203125 334.5625 L 210.203125 115.566406 C 210.203125 100.1875 214.597656 89.933594 235.839844 89.933594 L 263.671875 89.933594 L 263.671875 43.789062 C 258.542969 43.058594 242.429688 41.59375 223.386719 41.59375 C 183.835938 41.59375 156.738281 65.761719 156.738281 110.441406 L 156.738281 334.5625 M 261.472656 148.527344 L 111.328125 148.527344 L 111.328125 201.261719 L 254.882812 201.261719 " fill-opacity="1" fill-rule="nonzero"/><g clip-path="url(#933804c9e8)"><path fill="#010101" d="M 188.183594 64.683594 C 228.414062 64.683594 233.171875 64.816406 249.089844 65.542969 C 263.757812 66.203125 271.75 68.648438 277.101562 70.761719 C 284.105469 73.46875 289.125 76.773438 294.410156 82.058594 C 299.695312 87.34375 302.929688 92.363281 305.707031 99.367188 C 307.753906 104.652344 310.199219 112.644531 310.925781 127.375 C 311.652344 143.296875 311.78125 148.050781 311.78125 188.28125 C 311.78125 228.515625 311.652344 233.269531 310.925781 249.191406 C 310.265625 263.855469 307.820312 271.847656 305.707031 277.199219 C 302.996094 284.203125 299.695312 289.222656 294.410156 294.507812 C 289.125 299.792969 284.105469 303.03125 277.101562 305.804688 C 271.816406 307.851562 263.824219 310.296875 249.089844 311.023438 C 233.171875 311.75 228.414062 311.882812 188.183594 311.882812 C 147.953125 311.882812 143.195312 311.75 127.277344 311.023438 C 112.609375 310.363281 104.617188 307.917969 99.265625 305.804688 C 92.265625 303.097656 87.242188 299.792969 81.957031 294.507812 C 76.675781 289.222656 73.4375 284.203125 70.664062 277.199219 C 68.613281 271.914062 66.171875 263.921875 65.445312 249.191406 C 64.71875 233.269531 64.585938 228.515625 64.585938 188.28125 C 64.585938 148.050781 64.71875 143.296875 65.445312 127.375 C 66.105469 112.710938 68.546875 104.714844 70.664062 99.367188 C 73.371094 92.363281 76.675781 87.34375 81.957031 82.058594 C 87.242188 76.773438 92.265625 73.535156 99.265625 70.761719 C 104.550781 68.714844 112.542969 66.269531 127.277344 65.542969 C 143.195312 64.816406 147.953125 64.683594 188.183594 64.683594 M 188.183594 37.53125 C 147.226562 37.53125 142.140625 37.730469 126.019531 38.457031 C 109.96875 39.183594 99.003906 41.761719 89.421875 45.460938 C 79.515625 49.292969 71.125 54.445312 62.734375 62.835938 C 54.410156 71.222656 49.257812 79.613281 45.425781 89.523438 C 41.726562 99.101562 39.152344 110.066406 38.425781 126.121094 C 37.699219 142.171875 37.5 147.324219 37.5 188.21875 C 37.5 229.175781 37.699219 234.261719 38.425781 250.378906 C 39.152344 266.433594 41.726562 277.398438 45.425781 286.976562 C 49.257812 296.886719 54.410156 305.277344 62.800781 313.664062 C 71.191406 322.054688 79.582031 327.207031 89.488281 331.039062 C 99.066406 334.738281 110.035156 337.316406 126.085938 338.042969 C 142.140625 338.769531 147.292969 338.96875 188.25 338.96875 C 229.207031 338.96875 234.292969 338.769531 250.414062 338.042969 C 266.464844 337.316406 277.429688 334.738281 287.011719 331.039062 C 296.917969 327.207031 305.308594 322.054688 313.699219 313.664062 C 322.089844 305.277344 327.242188 296.886719 331.074219 286.976562 C 334.773438 277.398438 337.347656 266.433594 338.074219 250.378906 C 338.800781 234.328125 339 229.175781 339 188.21875 C 339 147.257812 338.800781 142.171875 338.074219 126.054688 C 337.347656 110 334.773438 99.035156 331.074219 89.457031 C 327.242188 79.546875 322.089844 71.15625 313.699219 62.769531 C 305.308594 54.378906 296.917969 49.226562 287.011719 45.394531 C 277.429688 41.695312 266.464844 39.117188 250.414062 38.390625 C 234.292969 37.730469 229.140625 37.53125 188.183594 37.53125 " fill-opacity="1" fill-rule="nonzero"/></g><path fill="#010101" d="M 188.183594 110.859375 C 145.441406 110.859375 110.828125 145.476562 110.828125 188.21875 C 110.828125 230.957031 145.507812 265.640625 188.25 265.640625 C 230.992188 265.640625 265.671875 231.023438 265.671875 188.21875 C 265.605469 145.476562 230.925781 110.859375 188.183594 110.859375 M 188.183594 238.488281 C 160.4375 238.488281 137.976562 216.027344 137.976562 188.28125 C 137.976562 160.539062 160.4375 138.078125 188.183594 138.078125 C 215.929688 138.078125 238.390625 160.539062 238.390625 188.28125 C 238.457031 215.960938 215.929688 238.488281 188.183594 238.488281 " fill-opacity="1" fill-rule="nonzero"/><path fill="#010101" d="M 286.746094 107.820312 C 286.746094 117.796875 278.621094 125.921875 268.644531 125.921875 C 258.671875 125.921875 250.546875 117.796875 250.546875 107.820312 C 250.546875 97.847656 258.671875 89.722656 268.644531 89.722656 C 278.621094 89.722656 286.746094 97.78125 286.746094 107.820312 " fill-opacity="1" fill-rule="nonzero"/></svg>