<svg xmlns="http://www.w3.org/2000/svg" xmlns:xlink="http://www.w3.org/1999/xlink" width="1080" zoomAndPan="magnify" viewBox="0 0 810 809.999993" height="1080" preserveAspectRatio="xMidYMid meet" version="1.0"><defs><clipPath id="ccc628ab76"><path d="M 8 10.855469 L 576 10.855469 L 576 578 L 8 578 Z M 8 10.855469 " clip-rule="nonzero"/></clipPath><clipPath id="34b51ef5d4"><path d="M 552 554 L 797 554 L 797 799.105469 L 552 799.105469 Z M 552 554 " clip-rule="nonzero"/></clipPath></defs><g clip-path="url(#ccc628ab76)"><path fill="#ffffff" d="M 291.882812 10.90625 C 135.65625 10.90625 8.570312 137.984375 8.570312 294.199219 C 8.570312 450.414062 135.65625 577.492188 291.882812 577.492188 C 448.105469 577.492188 575.191406 450.414062 575.191406 294.199219 C 575.191406 137.984375 448.105469 10.90625 291.882812 10.90625 Z M 291.882812 532.972656 C 160.214844 532.972656 53.09375 425.855469 53.09375 294.199219 C 53.09375 162.542969 160.214844 55.425781 291.882812 55.425781 C 423.546875 55.425781 530.667969 162.542969 530.667969 294.199219 C 530.667969 425.855469 423.546875 532.972656 291.882812 532.972656 Z M 291.882812 532.972656 " fill-opacity="1" fill-rule="nonzero"/></g><path fill="#ffffff" d="M 575.714844 538.320312 L 525.707031 488.3125 C 513.285156 503.25 499.460938 516.984375 484.441406 529.308594 L 535.230469 580.09375 C 538.449219 570.859375 543.738281 562.195312 551.105469 554.828125 L 552.523438 553.410156 C 559.21875 546.714844 567.109375 541.632812 575.714844 538.320312 Z M 575.714844 538.320312 " fill-opacity="1" fill-rule="nonzero"/><g clip-path="url(#34b51ef5d4)"><path fill="#ffffff" d="M 632.75 568.070312 C 624.035156 559.363281 612.394531 554.566406 599.96875 554.566406 C 587.542969 554.566406 575.898438 559.363281 567.1875 568.070312 L 565.769531 569.492188 C 557.058594 578.203125 552.261719 589.84375 552.261719 602.269531 C 552.261719 614.695312 557.058594 626.335938 565.769531 635.046875 L 716.449219 785.722656 C 725.164062 794.429688 736.804688 799.226562 749.230469 799.226562 C 761.660156 799.226562 773.300781 794.429688 782.011719 785.722656 L 783.433594 784.300781 C 801.503906 766.226562 801.503906 736.816406 783.433594 718.742188 Z M 632.75 568.070312 " fill-opacity="1" fill-rule="nonzero"/></g></svg>