<svg xmlns="http://www.w3.org/2000/svg" xmlns:xlink="http://www.w3.org/1999/xlink" width="1080" zoomAndPan="magnify" viewBox="0 0 810 809.999993" height="1080" preserveAspectRatio="xMidYMid meet" version="1.0"><defs><clipPath id="944c076077"><path d="M 22.691406 21.371094 L 790 21.371094 L 790 789 L 22.691406 789 Z M 22.691406 21.371094 " clip-rule="nonzero"/></clipPath></defs><g clip-path="url(#944c076077)"><path fill="#003554" d="M 518.734375 585.710938 L 707.757812 774.671875 C 726.472656 793.378906 756.867188 793.375 775.582031 774.660156 C 794.289062 755.9375 794.285156 725.546875 775.570312 706.832031 L 586.671875 518 C 624.671875 466.316406 647.132812 402.488281 647.132812 333.449219 C 647.132812 161.207031 507.296875 21.371094 335.054688 21.371094 C 162.8125 21.371094 22.976562 161.207031 22.976562 333.449219 C 22.976562 505.691406 162.8125 645.527344 335.054688 645.527344 C 403.695312 645.527344 467.1875 623.324219 518.734375 585.710938 Z M 335.054688 117.289062 C 454.359375 117.289062 551.222656 214.148438 551.222656 333.449219 C 551.222656 452.75 454.359375 549.613281 335.054688 549.613281 C 215.753906 549.613281 118.898438 452.75 118.898438 333.449219 C 118.898438 214.148438 215.753906 117.289062 335.054688 117.289062 Z M 335.054688 117.289062 " fill-opacity="1" fill-rule="evenodd"/></g></svg>