<svg xmlns="http://www.w3.org/2000/svg" xmlns:xlink="http://www.w3.org/1999/xlink" width="1080" zoomAndPan="magnify" viewBox="0 0 810 809.999993" height="1080" preserveAspectRatio="xMidYMid meet" version="1.0"><path fill="#ffffff" d="M 44.328125 163.410156 C 42.996094 163.390625 41.667969 163.4375 40.339844 163.550781 C 39.011719 163.664062 37.695312 163.84375 36.386719 164.085938 C 35.074219 164.332031 33.78125 164.636719 32.503906 165.011719 C 31.222656 165.382812 29.96875 165.816406 28.730469 166.3125 C 27.496094 166.808594 26.289062 167.367188 25.105469 167.980469 C 23.925781 168.597656 22.777344 169.273438 21.664062 170.003906 C 20.550781 170.730469 19.476562 171.515625 18.441406 172.351562 C 17.402344 173.1875 16.410156 174.074219 15.460938 175.011719 C 14.515625 175.945312 13.613281 176.925781 12.761719 177.949219 C 11.910156 178.972656 11.113281 180.039062 10.367188 181.140625 C 9.621094 182.246094 8.933594 183.382812 8.300781 184.554688 C 7.667969 185.726562 7.09375 186.925781 6.578125 188.15625 C 6.066406 189.382812 5.613281 190.632812 5.222656 191.90625 C 4.832031 193.179688 4.507812 194.472656 4.246094 195.777344 C 3.984375 197.082031 3.785156 198.398438 3.652344 199.722656 C 3.523438 201.046875 3.457031 202.378906 3.457031 203.710938 C 3.457031 205.039062 3.523438 206.371094 3.652344 207.695312 C 3.785156 209.019531 3.984375 210.335938 4.246094 211.640625 C 4.507812 212.945312 4.832031 214.238281 5.222656 215.511719 C 5.613281 216.785156 6.066406 218.035156 6.578125 219.261719 C 7.09375 220.492188 7.667969 221.691406 8.300781 222.863281 C 8.933594 224.035156 9.621094 225.171875 10.367188 226.277344 C 11.113281 227.378906 11.910156 228.445312 12.761719 229.46875 C 13.613281 230.492188 14.515625 231.472656 15.460938 232.40625 C 16.410156 233.34375 17.402344 234.230469 18.441406 235.066406 C 19.476562 235.902344 20.550781 236.6875 21.664062 237.414062 C 22.777344 238.144531 23.925781 238.820312 25.105469 239.4375 C 26.289062 240.050781 27.496094 240.609375 28.730469 241.105469 C 29.96875 241.601562 31.222656 242.035156 32.503906 242.40625 C 33.78125 242.78125 35.074219 243.085938 36.386719 243.332031 C 37.695312 243.574219 39.011719 243.753906 40.339844 243.867188 C 41.667969 243.980469 42.996094 244.027344 44.328125 244.007812 L 769.703125 244.007812 C 771.035156 244.027344 772.363281 243.980469 773.691406 243.867188 C 775.015625 243.753906 776.335938 243.574219 777.644531 243.332031 C 778.953125 243.085938 780.246094 242.78125 781.527344 242.40625 C 782.804688 242.035156 784.0625 241.601562 785.296875 241.105469 C 786.535156 240.609375 787.742188 240.050781 788.921875 239.4375 C 790.105469 238.820312 791.25 238.144531 792.363281 237.414062 C 793.480469 236.6875 794.554688 235.902344 795.589844 235.066406 C 796.625 234.230469 797.617188 233.34375 798.566406 232.40625 C 799.515625 231.472656 800.414062 230.492188 801.265625 229.46875 C 802.117188 228.445312 802.917969 227.378906 803.664062 226.277344 C 804.40625 225.171875 805.097656 224.035156 805.730469 222.863281 C 806.363281 221.691406 806.9375 220.492188 807.449219 219.261719 C 807.964844 218.035156 808.417969 216.785156 808.808594 215.511719 C 809.195312 214.238281 809.523438 212.945312 809.785156 211.640625 C 810.046875 210.335938 810.246094 209.019531 810.375 207.695312 C 810.507812 206.371094 810.574219 205.039062 810.574219 203.710938 C 810.574219 202.378906 810.507812 201.046875 810.375 199.722656 C 810.246094 198.398438 810.046875 197.082031 809.785156 195.777344 C 809.523438 194.472656 809.195312 193.179688 808.808594 191.90625 C 808.417969 190.632812 807.964844 189.382812 807.449219 188.15625 C 806.9375 186.925781 806.363281 185.726562 805.730469 184.554688 C 805.097656 183.382812 804.40625 182.246094 803.664062 181.140625 C 802.917969 180.039062 802.117188 178.972656 801.265625 177.949219 C 800.414062 176.925781 799.515625 175.945312 798.566406 175.011719 C 797.617188 174.074219 796.625 173.1875 795.589844 172.351562 C 794.554688 171.515625 793.480469 170.730469 792.363281 170.003906 C 791.25 169.273438 790.105469 168.597656 788.921875 167.980469 C 787.742188 167.367188 786.535156 166.808594 785.296875 166.3125 C 784.0625 165.816406 782.804688 165.382812 781.527344 165.011719 C 780.246094 164.636719 778.953125 164.332031 777.644531 164.085938 C 776.335938 163.84375 775.015625 163.664062 773.691406 163.550781 C 772.363281 163.4375 771.035156 163.390625 769.703125 163.410156 Z M 44.328125 405.203125 C 42.996094 405.183594 41.667969 405.230469 40.339844 405.34375 C 39.011719 405.457031 37.695312 405.632812 36.386719 405.878906 C 35.078125 406.121094 33.78125 406.429688 32.503906 406.800781 C 31.222656 407.171875 29.96875 407.609375 28.730469 408.105469 C 27.496094 408.601562 26.289062 409.15625 25.105469 409.773438 C 23.925781 410.390625 22.777344 411.0625 21.664062 411.792969 C 20.550781 412.523438 19.476562 413.308594 18.441406 414.144531 C 17.402344 414.980469 16.410156 415.867188 15.464844 416.800781 C 14.515625 417.738281 13.613281 418.714844 12.761719 419.742188 C 11.914062 420.765625 11.113281 421.828125 10.367188 422.933594 C 9.621094 424.035156 8.933594 425.171875 8.300781 426.34375 C 7.667969 427.515625 7.09375 428.71875 6.578125 429.945312 C 6.066406 431.175781 5.613281 432.425781 5.222656 433.699219 C 4.832031 434.972656 4.507812 436.261719 4.246094 437.566406 C 3.984375 438.875 3.785156 440.1875 3.65625 441.515625 C 3.523438 442.839844 3.457031 444.167969 3.457031 445.5 C 3.457031 446.832031 3.523438 448.160156 3.65625 449.484375 C 3.785156 450.8125 3.984375 452.125 4.246094 453.433594 C 4.507812 454.738281 4.832031 456.027344 5.222656 457.300781 C 5.613281 458.574219 6.066406 459.824219 6.578125 461.054688 C 7.09375 462.28125 7.667969 463.484375 8.300781 464.65625 C 8.933594 465.828125 9.621094 466.964844 10.367188 468.066406 C 11.113281 469.171875 11.914062 470.234375 12.761719 471.257812 C 13.613281 472.285156 14.515625 473.261719 15.464844 474.199219 C 16.410156 475.132812 17.402344 476.019531 18.441406 476.855469 C 19.476562 477.691406 20.550781 478.476562 21.664062 479.207031 C 22.777344 479.9375 23.925781 480.609375 25.105469 481.226562 C 26.289062 481.84375 27.496094 482.398438 28.730469 482.894531 C 29.96875 483.390625 31.222656 483.828125 32.503906 484.199219 C 33.78125 484.570312 35.078125 484.878906 36.386719 485.121094 C 37.695312 485.367188 39.011719 485.542969 40.339844 485.65625 C 41.667969 485.769531 42.996094 485.816406 44.328125 485.796875 L 769.703125 485.796875 C 771.035156 485.816406 772.363281 485.769531 773.691406 485.65625 C 775.015625 485.542969 776.335938 485.367188 777.644531 485.121094 C 778.953125 484.878906 780.246094 484.570312 781.527344 484.199219 C 782.804688 483.828125 784.0625 483.390625 785.296875 482.894531 C 786.535156 482.398438 787.742188 481.84375 788.921875 481.226562 C 790.105469 480.609375 791.25 479.9375 792.363281 479.207031 C 793.480469 478.476562 794.554688 477.691406 795.589844 476.855469 C 796.625 476.019531 797.617188 475.132812 798.566406 474.199219 C 799.515625 473.261719 800.414062 472.285156 801.265625 471.257812 C 802.117188 470.234375 802.914062 469.171875 803.660156 468.066406 C 804.40625 466.964844 805.097656 465.828125 805.730469 464.65625 C 806.363281 463.484375 806.9375 462.28125 807.449219 461.054688 C 807.964844 459.824219 808.417969 458.574219 808.804688 457.300781 C 809.195312 456.027344 809.523438 454.738281 809.785156 453.433594 C 810.046875 452.125 810.242188 450.8125 810.375 449.484375 C 810.507812 448.160156 810.574219 446.832031 810.574219 445.5 C 810.574219 444.167969 810.507812 442.839844 810.375 441.515625 C 810.242188 440.1875 810.046875 438.875 809.785156 437.566406 C 809.523438 436.261719 809.195312 434.972656 808.804688 433.699219 C 808.417969 432.425781 807.964844 431.175781 807.449219 429.945312 C 806.9375 428.71875 806.363281 427.515625 805.730469 426.34375 C 805.097656 425.171875 804.40625 424.035156 803.660156 422.933594 C 802.914062 421.828125 802.117188 420.765625 801.265625 419.742188 C 800.414062 418.714844 799.515625 417.738281 798.566406 416.800781 C 797.617188 415.867188 796.625 414.980469 795.589844 414.144531 C 794.554688 413.308594 793.480469 412.523438 792.363281 411.792969 C 791.25 411.0625 790.105469 410.390625 788.921875 409.773438 C 787.742188 409.15625 786.535156 408.601562 785.296875 408.105469 C 784.0625 407.609375 782.804688 407.171875 781.527344 406.800781 C 780.246094 406.429688 778.953125 406.121094 777.644531 405.878906 C 776.335938 405.632812 775.015625 405.457031 773.691406 405.34375 C 772.363281 405.230469 771.035156 405.183594 769.703125 405.203125 Z M 44.328125 646.992188 C 42.996094 646.972656 41.667969 647.019531 40.339844 647.132812 C 39.011719 647.246094 37.695312 647.425781 36.386719 647.667969 C 35.074219 647.914062 33.78125 648.21875 32.503906 648.59375 C 31.222656 648.964844 29.96875 649.398438 28.730469 649.894531 C 27.496094 650.390625 26.285156 650.949219 25.105469 651.5625 C 23.925781 652.179688 22.777344 652.855469 21.664062 653.582031 C 20.550781 654.3125 19.476562 655.097656 18.4375 655.933594 C 17.402344 656.769531 16.410156 657.65625 15.460938 658.59375 C 14.515625 659.527344 13.613281 660.507812 12.761719 661.53125 C 11.910156 662.554688 11.113281 663.621094 10.367188 664.722656 C 9.621094 665.828125 8.933594 666.964844 8.296875 668.136719 C 7.664062 669.308594 7.09375 670.507812 6.578125 671.734375 C 6.0625 672.964844 5.613281 674.214844 5.222656 675.488281 C 4.832031 676.761719 4.507812 678.050781 4.242188 679.359375 C 3.980469 680.664062 3.785156 681.980469 3.652344 683.304688 C 3.519531 684.628906 3.457031 685.960938 3.457031 687.292969 C 3.457031 688.621094 3.519531 689.953125 3.652344 691.277344 C 3.785156 692.601562 3.980469 693.917969 4.242188 695.222656 C 4.507812 696.53125 4.832031 697.820312 5.222656 699.09375 C 5.613281 700.367188 6.0625 701.617188 6.578125 702.847656 C 7.09375 704.074219 7.664062 705.273438 8.296875 706.445312 C 8.933594 707.617188 9.621094 708.757812 10.367188 709.859375 C 11.113281 710.964844 11.910156 712.027344 12.761719 713.050781 C 13.613281 714.074219 14.515625 715.054688 15.460938 715.988281 C 16.410156 716.925781 17.402344 717.8125 18.4375 718.648438 C 19.476562 719.484375 20.550781 720.269531 21.664062 721 C 22.777344 721.726562 23.925781 722.402344 25.105469 723.019531 C 26.285156 723.632812 27.496094 724.191406 28.730469 724.6875 C 29.96875 725.183594 31.222656 725.617188 32.503906 725.988281 C 33.78125 726.363281 35.074219 726.667969 36.386719 726.914062 C 37.695312 727.15625 39.011719 727.335938 40.339844 727.449219 C 41.667969 727.5625 42.996094 727.609375 44.328125 727.589844 L 769.703125 727.589844 C 771.035156 727.609375 772.363281 727.5625 773.691406 727.449219 C 775.015625 727.335938 776.335938 727.15625 777.644531 726.914062 C 778.953125 726.667969 780.246094 726.363281 781.527344 725.988281 C 782.804688 725.617188 784.0625 725.183594 785.300781 724.6875 C 786.535156 724.191406 787.742188 723.632812 788.921875 723.019531 C 790.105469 722.402344 791.25 721.726562 792.367188 721 C 793.480469 720.269531 794.554688 719.484375 795.589844 718.648438 C 796.625 717.8125 797.621094 716.925781 798.566406 715.988281 C 799.515625 715.054688 800.414062 714.074219 801.265625 713.050781 C 802.117188 712.027344 802.917969 710.960938 803.664062 709.859375 C 804.410156 708.757812 805.097656 707.617188 805.730469 706.445312 C 806.363281 705.273438 806.9375 704.074219 807.453125 702.847656 C 807.964844 701.617188 808.417969 700.367188 808.808594 699.09375 C 809.199219 697.820312 809.523438 696.53125 809.785156 695.222656 C 810.046875 693.917969 810.246094 692.601562 810.375 691.277344 C 810.507812 689.953125 810.574219 688.621094 810.574219 687.292969 C 810.574219 685.960938 810.507812 684.628906 810.375 683.304688 C 810.246094 681.980469 810.046875 680.664062 809.785156 679.359375 C 809.523438 678.050781 809.199219 676.761719 808.808594 675.488281 C 808.417969 674.214844 807.964844 672.964844 807.453125 671.734375 C 806.9375 670.507812 806.363281 669.308594 805.730469 668.136719 C 805.097656 666.964844 804.410156 665.824219 803.664062 664.722656 C 802.917969 663.621094 802.117188 662.554688 801.265625 661.53125 C 800.414062 660.507812 799.515625 659.527344 798.566406 658.59375 C 797.621094 657.65625 796.625 656.769531 795.589844 655.933594 C 794.554688 655.097656 793.480469 654.3125 792.367188 653.582031 C 791.25 652.855469 790.105469 652.179688 788.921875 651.5625 C 787.742188 650.949219 786.535156 650.390625 785.300781 649.894531 C 784.0625 649.398438 782.804688 648.964844 781.527344 648.59375 C 780.246094 648.21875 778.953125 647.914062 777.644531 647.667969 C 776.335938 647.425781 775.015625 647.246094 773.691406 647.132812 C 772.363281 647.019531 771.035156 646.972656 769.703125 646.992188 Z M 44.328125 646.992188 " fill-opacity="1" fill-rule="nonzero"/></svg>