<svg xmlns="http://www.w3.org/2000/svg" xmlns:xlink="http://www.w3.org/1999/xlink" width="500" zoomAndPan="magnify" viewBox="0 0 375 374.999991" height="500" preserveAspectRatio="xMidYMid meet" version="1.0"><defs><clipPath id="40ac8b42ca"><path d="M 0 25.3125 L 375 25.3125 L 375 350.0625 L 0 350.0625 Z M 0 25.3125 " clip-rule="nonzero"/></clipPath><clipPath id="aa58b87244"><path d="M 165 174 L 210 174 L 210 350.0625 L 165 350.0625 Z M 165 174 " clip-rule="nonzero"/></clipPath><clipPath id="c6bac250f3"><path d="M 16 54 L 359 54 L 359 350.0625 L 16 350.0625 Z M 16 54 " clip-rule="nonzero"/></clipPath></defs><g clip-path="url(#40ac8b42ca)"><path fill="#ffffff" d="M 358.125 350.09375 L 374.789062 350.09375 L 187.5 25.324219 L 0.210938 350.09375 L 16.875 350.09375 L 187.5 54.21875 L 358.125 350.09375 " fill-opacity="1" fill-rule="nonzero"/></g><g clip-path="url(#aa58b87244)"><path fill="#ffffff" d="M 165.109375 213.753906 L 172.3125 213.753906 L 172.3125 350.09375 L 202.6875 350.09375 L 202.6875 213.753906 L 209.890625 213.753906 L 187.5 174.929688 L 165.109375 213.753906 " fill-opacity="1" fill-rule="nonzero"/></g><g clip-path="url(#c6bac250f3)"><path fill="#ffffff" d="M 145.238281 350.09375 L 145.238281 273.574219 L 152.441406 273.574219 L 130.050781 234.746094 L 107.65625 273.574219 L 114.859375 273.574219 L 114.859375 319.679688 L 52.824219 319.679688 L 187.5 86.148438 L 322.175781 319.679688 L 260.136719 319.679688 L 260.136719 273.574219 L 267.339844 273.574219 L 244.949219 234.746094 L 222.5625 273.574219 L 229.765625 273.574219 L 229.765625 350.09375 L 358.125 350.09375 L 187.5 54.21875 L 16.875 350.09375 L 145.238281 350.09375 " fill-opacity="1" fill-rule="nonzero"/></g></svg>