<svg xmlns="http://www.w3.org/2000/svg" xmlns:xlink="http://www.w3.org/1999/xlink" width="1080" zoomAndPan="magnify" viewBox="0 0 810 809.999993" height="1080" preserveAspectRatio="xMidYMid meet" version="1.0"><path fill="#676f54" d="M 487.507812 711.226562 L 174.113281 711.226562 C 132.300781 711.226562 98.410156 677.332031 98.410156 635.519531 L 98.410156 295.691406 L 361.203125 106.03125 C 362.109375 105.421875 364.695312 105.421875 365.542969 106.03125 L 628.316406 295.6875 L 628.316406 303.703125 C 615.078125 308.039062 602.304688 313.667969 590.46875 321.105469 C 563.1875 303.992188 531.621094 294.820312 498.613281 294.820312 C 452.371094 294.820312 408.902344 312.824219 376.226562 345.523438 C 343.511719 378.222656 325.515625 421.695312 325.515625 467.960938 C 325.515625 514.226562 343.515625 557.679688 374.082031 588.164062 Z M 487.507812 711.226562 " fill-opacity="1" fill-rule="nonzero"/><path fill="#ffcf99" d="M 751.1875 536.847656 L 590.46875 711.226562 L 429.746094 536.847656 C 391.703125 498.800781 391.703125 437.117188 429.746094 399.070312 C 467.789062 361.023438 529.464844 361.027344 567.507812 399.070312 L 590.46875 422.03125 L 613.425781 399.070312 C 651.472656 361.027344 713.148438 361.027344 751.1875 399.070312 C 789.226562 437.113281 789.230469 498.800781 751.1875 536.847656 Z M 751.1875 536.847656 " fill-opacity="1" fill-rule="nonzero"/><path fill="#003554" d="M 470.066406 692.300781 L 504.957031 730.15625 L 174.113281 730.15625 C 121.9375 730.15625 79.484375 687.699219 79.484375 635.519531 L 79.484375 309.351562 L 117.335938 282.035156 L 117.335938 635.519531 C 117.335938 666.828125 142.804688 692.300781 174.113281 692.300781 Z M 305.8125 29.304688 L 11.640625 241.628906 C 3.15625 247.746094 1.253906 259.574219 7.371094 268.042969 C 13.484375 276.546875 25.332031 278.449219 33.78125 272.3125 L 327.957031 59.992188 C 348.804688 44.945312 377.929688 44.945312 398.777344 59.992188 L 692.933594 272.3125 C 696.296875 274.738281 700.175781 275.898438 704.023438 275.898438 C 709.863281 275.898438 715.664062 273.179688 719.363281 268.042969 C 725.5 259.578125 723.574219 247.75 715.113281 241.628906 L 420.917969 29.304688 C 387.019531 4.832031 339.671875 4.832031 305.8125 29.304688 Z M 764.5625 385.691406 C 809.917969 431.050781 809.917969 504.855469 764.5625 550.234375 L 604.367188 724.058594 C 600.816406 727.9375 595.753906 730.15625 590.46875 730.15625 C 585.179688 730.15625 580.117188 727.9375 576.570312 724.058594 L 415.832031 549.683594 C 394.394531 528.261719 382.289062 499.035156 382.289062 467.964844 C 382.289062 436.875 394.394531 407.671875 416.371094 385.695312 C 460.316406 341.722656 537.019531 341.761719 580.894531 385.695312 L 590.46875 395.269531 L 600.039062 385.695312 C 643.953125 341.761719 720.648438 341.722656 764.5625 385.695312 Z M 737.804688 412.457031 C 708.121094 382.789062 656.410156 382.828125 626.804688 412.457031 L 603.851562 435.410156 C 596.460938 442.804688 584.484375 442.804688 577.089844 435.410156 L 554.136719 412.457031 C 539.316406 397.632812 519.613281 389.460938 498.621094 389.460938 C 477.660156 389.460938 457.960938 397.632812 443.136719 412.457031 C 428.316406 427.28125 420.148438 446.984375 420.148438 467.960938 C 420.148438 488.921875 428.316406 508.644531 443.136719 523.46875 L 590.476562 683.296875 L 737.292969 524.023438 C 768.417969 492.863281 768.417969 443.046875 737.8125 412.457031 Z M 737.804688 412.457031 " fill-opacity="1" fill-rule="nonzero"/></svg>